<svg xmlns="http://www.w3.org/2000/svg" width="512" height="512" viewBox="0 0 512 512" version="1.1">
	<path d="M 236.500 0.582 C 234.850 0.811, 229.225 1.485, 224 2.080 C 169.577 8.271, 115.105 34.942, 75.024 75.024 C 34.946 115.101, 9.939 166.013, 1.849 224 C 0.107 236.487, 0.107 275.513, 1.849 288 C 9.939 345.987, 34.946 396.899, 75.024 436.976 C 115.101 477.054, 166.013 502.061, 224 510.151 C 236.487 511.893, 275.513 511.893, 288 510.151 C 362.887 499.703, 426.120 460.815, 467.924 399.500 C 490.752 366.017, 506.229 324.298, 510.052 285.943 C 510.680 279.649, 511.600 273.719, 512.097 272.764 C 513.372 270.312, 513.280 237.709, 512 238.500 C 511.393 238.875, 510.993 237.423, 510.982 234.809 C 510.927 222.037, 505.656 196.090, 499.033 176 C 486.226 137.148, 465.697 103.744, 436.976 75.024 C 397.649 35.697, 347.841 10.826, 291.500 2.384 C 282.036 0.966, 242.948 -0.315, 236.500 0.582 M 0.411 256 C 0.411 265.625, 0.561 269.563, 0.745 264.750 C 0.928 259.938, 0.928 252.062, 0.745 247.250 C 0.561 242.438, 0.411 246.375, 0.411 256" stroke="none" fill="black" fill-rule="evenodd"/>
</svg>